<mxfile host="e0896faa-8cd1-40ea-b9d9-89d11661e0cb" modified="2020-08-21T12:28:03.758Z" agent="5.0 (Windows NT 10.0; Win64; x64) AppleWebKit/537.36 (KHTML, like Gecko) Code/1.47.3 Chrome/78.0.3904.130 Electron/7.3.2 Safari/537.36" etag="6wUVX9HMGM2kZjo2sXFh" version="13.1.3" pages="2">
    <diagram id="6hGFLwfOUW9BJ-s0fimq" name="Page-1">
        <mxGraphModel dx="652" dy="480" grid="0" gridSize="10" guides="1" tooltips="1" connect="1" arrows="1" fold="1" page="1" pageScale="1" pageWidth="1169" pageHeight="827" background="#808080" math="0" shadow="1">
            <root>
                <mxCell id="0"/>
                <mxCell id="1" parent="0"/>
                <mxCell id="4" value="" style="endArrow=none;html=1;strokeWidth=2;strokeColor=#FFFF66;" parent="1" edge="1">
                    <mxGeometry width="50" height="50" relative="1" as="geometry">
                        <mxPoint x="316" y="337" as="sourcePoint"/>
                        <mxPoint x="316" y="105" as="targetPoint"/>
                    </mxGeometry>
                </mxCell>
                <mxCell id="8" value="" style="endArrow=none;html=1;strokeColor=#FFFF66;strokeWidth=2;" parent="1" edge="1">
                    <mxGeometry width="50" height="50" relative="1" as="geometry">
                        <mxPoint x="316" y="187.99999999999994" as="sourcePoint"/>
                        <mxPoint x="393" y="188" as="targetPoint"/>
                    </mxGeometry>
                </mxCell>
                <mxCell id="9" value="&lt;font style=&quot;font-size: 18px&quot;&gt;1 , 3&lt;/font&gt;" style="text;html=1;strokeColor=none;fillColor=none;align=center;verticalAlign=middle;whiteSpace=wrap;rounded=0;" parent="1" vertex="1">
                    <mxGeometry x="335" y="162" width="40" height="20" as="geometry"/>
                </mxCell>
                <mxCell id="12" value="" style="endArrow=none;html=1;strokeColor=#FFFF66;strokeWidth=2;" parent="1" edge="1">
                    <mxGeometry width="50" height="50" relative="1" as="geometry">
                        <mxPoint x="316" y="156.99999999999994" as="sourcePoint"/>
                        <mxPoint x="393" y="157" as="targetPoint"/>
                    </mxGeometry>
                </mxCell>
                <mxCell id="13" value="" style="endArrow=none;html=1;strokeColor=#FFFF66;strokeWidth=2;" parent="1" edge="1">
                    <mxGeometry width="50" height="50" relative="1" as="geometry">
                        <mxPoint x="316.00000000000006" y="156.99999999999994" as="sourcePoint"/>
                        <mxPoint x="392.99999999999994" y="157" as="targetPoint"/>
                    </mxGeometry>
                </mxCell>
                <mxCell id="18" value="" style="endArrow=none;html=1;strokeColor=#FFFF66;strokeWidth=2;" parent="1" edge="1">
                    <mxGeometry width="50" height="50" relative="1" as="geometry">
                        <mxPoint x="316.00000000000006" y="156.99999999999994" as="sourcePoint"/>
                        <mxPoint x="392.99999999999994" y="157" as="targetPoint"/>
                    </mxGeometry>
                </mxCell>
                <mxCell id="19" value="" style="endArrow=none;html=1;strokeColor=#FFFF66;strokeWidth=2;" parent="1" edge="1">
                    <mxGeometry width="50" height="50" relative="1" as="geometry">
                        <mxPoint x="316.00000000000006" y="219.99999999999994" as="sourcePoint"/>
                        <mxPoint x="392.99999999999994" y="220" as="targetPoint"/>
                    </mxGeometry>
                </mxCell>
                <mxCell id="21" value="" style="endArrow=none;html=1;strokeColor=#FFFF66;strokeWidth=2;" parent="1" edge="1">
                    <mxGeometry width="50" height="50" relative="1" as="geometry">
                        <mxPoint x="316" y="252.99999999999994" as="sourcePoint"/>
                        <mxPoint x="393" y="253" as="targetPoint"/>
                    </mxGeometry>
                </mxCell>
                <mxCell id="23" value="" style="endArrow=none;html=1;strokeColor=#FFFF66;strokeWidth=2;" parent="1" edge="1">
                    <mxGeometry width="50" height="50" relative="1" as="geometry">
                        <mxPoint x="316" y="285.99999999999994" as="sourcePoint"/>
                        <mxPoint x="393" y="286" as="targetPoint"/>
                    </mxGeometry>
                </mxCell>
                <mxCell id="25" value="" style="endArrow=none;html=1;strokeColor=#FFFF66;strokeWidth=2;" parent="1" edge="1">
                    <mxGeometry width="50" height="50" relative="1" as="geometry">
                        <mxPoint x="316" y="318.99999999999994" as="sourcePoint"/>
                        <mxPoint x="393" y="319" as="targetPoint"/>
                    </mxGeometry>
                </mxCell>
                <mxCell id="29" value="&lt;font style=&quot;font-size: 18px&quot;&gt;2 , 5&lt;/font&gt;" style="text;html=1;strokeColor=none;fillColor=none;align=center;verticalAlign=middle;whiteSpace=wrap;rounded=0;" parent="1" vertex="1">
                    <mxGeometry x="335" y="229" width="40" height="20" as="geometry"/>
                </mxCell>
                <mxCell id="30" value="&lt;font style=&quot;font-size: 18px&quot;&gt;3 , 0&lt;/font&gt;" style="text;html=1;strokeColor=none;fillColor=none;align=center;verticalAlign=middle;whiteSpace=wrap;rounded=0;" parent="1" vertex="1">
                    <mxGeometry x="335" y="294" width="40" height="20" as="geometry"/>
                </mxCell>
                <mxCell id="31" value="" style="endArrow=none;html=1;strokeWidth=2;strokeColor=#FFFF66;" parent="1" edge="1">
                    <mxGeometry width="50" height="50" relative="1" as="geometry">
                        <mxPoint x="393" y="336" as="sourcePoint"/>
                        <mxPoint x="393" y="105" as="targetPoint"/>
                    </mxGeometry>
                </mxCell>
                <mxCell id="32" value="&lt;span style=&quot;font-size: 18px&quot;&gt;静态链表存储{1,2,3}&lt;/span&gt;" style="text;html=1;strokeColor=none;fillColor=none;align=center;verticalAlign=middle;whiteSpace=wrap;rounded=0;" parent="1" vertex="1">
                    <mxGeometry x="236" y="70" width="195" height="20" as="geometry"/>
                </mxCell>
                <mxCell id="33" value="&lt;span style=&quot;font-size: 18px&quot;&gt;a[1]&lt;/span&gt;" style="text;html=1;strokeColor=none;fillColor=none;align=center;verticalAlign=middle;whiteSpace=wrap;rounded=0;" parent="1" vertex="1">
                    <mxGeometry x="276" y="162" width="40" height="20" as="geometry"/>
                </mxCell>
                <mxCell id="34" value="&lt;span style=&quot;font-size: 18px&quot;&gt;a[2]&lt;/span&gt;" style="text;html=1;strokeColor=none;fillColor=none;align=center;verticalAlign=middle;whiteSpace=wrap;rounded=0;" parent="1" vertex="1">
                    <mxGeometry x="276" y="193" width="40" height="20" as="geometry"/>
                </mxCell>
                <mxCell id="35" value="&lt;span style=&quot;font-size: 18px&quot;&gt;a[3]&lt;/span&gt;" style="text;html=1;strokeColor=none;fillColor=none;align=center;verticalAlign=middle;whiteSpace=wrap;rounded=0;" parent="1" vertex="1">
                    <mxGeometry x="276" y="229" width="40" height="20" as="geometry"/>
                </mxCell>
                <mxCell id="36" value="&lt;span style=&quot;font-size: 18px&quot;&gt;a[4]&lt;/span&gt;" style="text;html=1;strokeColor=none;fillColor=none;align=center;verticalAlign=middle;whiteSpace=wrap;rounded=0;" parent="1" vertex="1">
                    <mxGeometry x="276" y="259" width="40" height="20" as="geometry"/>
                </mxCell>
                <mxCell id="37" value="&lt;span style=&quot;font-size: 18px&quot;&gt;a[5]&lt;/span&gt;" style="text;html=1;strokeColor=none;fillColor=none;align=center;verticalAlign=middle;whiteSpace=wrap;rounded=0;" parent="1" vertex="1">
                    <mxGeometry x="276" y="291" width="40" height="20" as="geometry"/>
                </mxCell>
                <mxCell id="39" value="" style="endArrow=none;html=1;strokeColor=#FFFF66;strokeWidth=2;" parent="1" edge="1">
                    <mxGeometry width="50" height="50" relative="1" as="geometry">
                        <mxPoint x="316.00000000000006" y="125.99999999999994" as="sourcePoint"/>
                        <mxPoint x="393" y="126" as="targetPoint"/>
                    </mxGeometry>
                </mxCell>
                <mxCell id="40" value="&lt;span style=&quot;font-size: 18px&quot;&gt;a[0]&lt;/span&gt;" style="text;html=1;strokeColor=none;fillColor=none;align=center;verticalAlign=middle;whiteSpace=wrap;rounded=0;" parent="1" vertex="1">
                    <mxGeometry x="276" y="130" width="40" height="20" as="geometry"/>
                </mxCell>
                <mxCell id="83" value="" style="endArrow=classic;startArrow=oval;html=1;strokeColor=#FFFF66;strokeWidth=2;startFill=1;startSize=3;" parent="1" edge="1">
                    <mxGeometry width="50" height="50" relative="1" as="geometry">
                        <mxPoint x="231" y="143.76" as="sourcePoint"/>
                        <mxPoint x="279" y="143.76" as="targetPoint"/>
                    </mxGeometry>
                </mxCell>
                <mxCell id="84" value="" style="endArrow=classic;startArrow=oval;html=1;strokeColor=#FFFF66;strokeWidth=2;startFill=1;startSize=3;" parent="1" edge="1">
                    <mxGeometry width="50" height="50" relative="1" as="geometry">
                        <mxPoint x="231" y="175.76" as="sourcePoint"/>
                        <mxPoint x="279" y="175.76" as="targetPoint"/>
                    </mxGeometry>
                </mxCell>
                <mxCell id="85" value="&lt;span style=&quot;font-size: 18px&quot;&gt;备用链表表头&lt;/span&gt;" style="text;html=1;strokeColor=none;fillColor=none;align=center;verticalAlign=middle;whiteSpace=wrap;rounded=0;" parent="1" vertex="1">
                    <mxGeometry x="99" y="134" width="121" height="20" as="geometry"/>
                </mxCell>
                <mxCell id="86" value="&lt;span style=&quot;font-size: 18px&quot;&gt;数据链表表头&lt;/span&gt;" style="text;html=1;strokeColor=none;fillColor=none;align=center;verticalAlign=middle;whiteSpace=wrap;rounded=0;" parent="1" vertex="1">
                    <mxGeometry x="99" y="166" width="121" height="20" as="geometry"/>
                </mxCell>
                <mxCell id="87" value="&lt;font style=&quot;font-size: 18px&quot;&gt;&amp;nbsp;, 2&lt;/font&gt;" style="text;html=1;strokeColor=#A50040;fillColor=#d80073;align=center;verticalAlign=middle;whiteSpace=wrap;rounded=0;fontColor=#ffffff;" parent="1" vertex="1">
                    <mxGeometry x="338" y="131" width="40" height="20" as="geometry"/>
                </mxCell>
                <mxCell id="88" value="&lt;font style=&quot;font-size: 18px&quot;&gt;&amp;nbsp;, 4&lt;/font&gt;" style="text;html=1;strokeColor=#A50040;fillColor=#d80073;align=center;verticalAlign=middle;whiteSpace=wrap;rounded=0;fontColor=#ffffff;" parent="1" vertex="1">
                    <mxGeometry x="338" y="193" width="40" height="20" as="geometry"/>
                </mxCell>
                <mxCell id="89" value="&lt;font style=&quot;font-size: 18px&quot;&gt;&amp;nbsp;, 0&lt;/font&gt;" style="text;html=1;strokeColor=#A50040;fillColor=#d80073;align=center;verticalAlign=middle;whiteSpace=wrap;rounded=0;fontColor=#ffffff;" parent="1" vertex="1">
                    <mxGeometry x="335" y="259" width="40" height="20" as="geometry"/>
                </mxCell>
                <mxCell id="90" value="" style="endArrow=none;html=1;strokeWidth=2;strokeColor=#FFFF66;" parent="1" edge="1">
                    <mxGeometry width="50" height="50" relative="1" as="geometry">
                        <mxPoint x="255" y="1165" as="sourcePoint"/>
                        <mxPoint x="255" y="933" as="targetPoint"/>
                    </mxGeometry>
                </mxCell>
                <mxCell id="91" value="" style="endArrow=none;html=1;strokeColor=#FFFF66;strokeWidth=2;" parent="1" edge="1">
                    <mxGeometry width="50" height="50" relative="1" as="geometry">
                        <mxPoint x="255" y="1016" as="sourcePoint"/>
                        <mxPoint x="332" y="1016" as="targetPoint"/>
                    </mxGeometry>
                </mxCell>
                <mxCell id="93" value="" style="endArrow=none;html=1;strokeColor=#FFFF66;strokeWidth=2;" parent="1" edge="1">
                    <mxGeometry width="50" height="50" relative="1" as="geometry">
                        <mxPoint x="255" y="985" as="sourcePoint"/>
                        <mxPoint x="332" y="985" as="targetPoint"/>
                    </mxGeometry>
                </mxCell>
                <mxCell id="94" value="" style="endArrow=none;html=1;strokeColor=#FFFF66;strokeWidth=2;" parent="1" edge="1">
                    <mxGeometry width="50" height="50" relative="1" as="geometry">
                        <mxPoint x="255" y="985" as="sourcePoint"/>
                        <mxPoint x="332" y="985" as="targetPoint"/>
                    </mxGeometry>
                </mxCell>
                <mxCell id="95" value="" style="endArrow=none;html=1;strokeColor=#FFFF66;strokeWidth=2;" parent="1" edge="1">
                    <mxGeometry width="50" height="50" relative="1" as="geometry">
                        <mxPoint x="255" y="985" as="sourcePoint"/>
                        <mxPoint x="332" y="985" as="targetPoint"/>
                    </mxGeometry>
                </mxCell>
                <mxCell id="96" value="" style="endArrow=none;html=1;strokeColor=#FFFF66;strokeWidth=2;" parent="1" edge="1">
                    <mxGeometry width="50" height="50" relative="1" as="geometry">
                        <mxPoint x="255" y="1048" as="sourcePoint"/>
                        <mxPoint x="332" y="1048" as="targetPoint"/>
                    </mxGeometry>
                </mxCell>
                <mxCell id="97" value="" style="endArrow=none;html=1;strokeColor=#FFFF66;strokeWidth=2;" parent="1" edge="1">
                    <mxGeometry width="50" height="50" relative="1" as="geometry">
                        <mxPoint x="255" y="1081" as="sourcePoint"/>
                        <mxPoint x="332" y="1081" as="targetPoint"/>
                    </mxGeometry>
                </mxCell>
                <mxCell id="98" value="" style="endArrow=none;html=1;strokeColor=#FFFF66;strokeWidth=2;" parent="1" edge="1">
                    <mxGeometry width="50" height="50" relative="1" as="geometry">
                        <mxPoint x="255" y="1114" as="sourcePoint"/>
                        <mxPoint x="332" y="1114" as="targetPoint"/>
                    </mxGeometry>
                </mxCell>
                <mxCell id="99" value="" style="endArrow=none;html=1;strokeColor=#FFFF66;strokeWidth=2;" parent="1" edge="1">
                    <mxGeometry width="50" height="50" relative="1" as="geometry">
                        <mxPoint x="255" y="1147" as="sourcePoint"/>
                        <mxPoint x="332" y="1147" as="targetPoint"/>
                    </mxGeometry>
                </mxCell>
                <mxCell id="102" value="" style="endArrow=none;html=1;strokeWidth=2;strokeColor=#FFFF66;" parent="1" edge="1">
                    <mxGeometry width="50" height="50" relative="1" as="geometry">
                        <mxPoint x="333" y="1163.5" as="sourcePoint"/>
                        <mxPoint x="333" y="932.5" as="targetPoint"/>
                    </mxGeometry>
                </mxCell>
                <mxCell id="104" value="&lt;span style=&quot;font-size: 18px&quot;&gt;a[1]&lt;/span&gt;" style="text;html=1;strokeColor=none;fillColor=none;align=center;verticalAlign=middle;whiteSpace=wrap;rounded=0;" parent="1" vertex="1">
                    <mxGeometry x="215" y="990" width="40" height="20" as="geometry"/>
                </mxCell>
                <mxCell id="105" value="&lt;span style=&quot;font-size: 18px&quot;&gt;a[2]&lt;/span&gt;" style="text;html=1;strokeColor=none;fillColor=none;align=center;verticalAlign=middle;whiteSpace=wrap;rounded=0;" parent="1" vertex="1">
                    <mxGeometry x="215" y="1021" width="40" height="20" as="geometry"/>
                </mxCell>
                <mxCell id="106" value="&lt;span style=&quot;font-size: 18px&quot;&gt;a[3]&lt;/span&gt;" style="text;html=1;strokeColor=none;fillColor=none;align=center;verticalAlign=middle;whiteSpace=wrap;rounded=0;" parent="1" vertex="1">
                    <mxGeometry x="215" y="1057" width="40" height="20" as="geometry"/>
                </mxCell>
                <mxCell id="107" value="&lt;span style=&quot;font-size: 18px&quot;&gt;a[4]&lt;/span&gt;" style="text;html=1;strokeColor=none;fillColor=none;align=center;verticalAlign=middle;whiteSpace=wrap;rounded=0;" parent="1" vertex="1">
                    <mxGeometry x="215" y="1087" width="40" height="20" as="geometry"/>
                </mxCell>
                <mxCell id="108" value="&lt;span style=&quot;font-size: 18px&quot;&gt;a[5]&lt;/span&gt;" style="text;html=1;strokeColor=none;fillColor=none;align=center;verticalAlign=middle;whiteSpace=wrap;rounded=0;" parent="1" vertex="1">
                    <mxGeometry x="215" y="1119" width="40" height="20" as="geometry"/>
                </mxCell>
                <mxCell id="109" value="" style="endArrow=none;html=1;strokeColor=#FFFF66;strokeWidth=2;" parent="1" edge="1">
                    <mxGeometry width="50" height="50" relative="1" as="geometry">
                        <mxPoint x="255" y="954" as="sourcePoint"/>
                        <mxPoint x="332" y="954" as="targetPoint"/>
                    </mxGeometry>
                </mxCell>
                <mxCell id="110" value="&lt;span style=&quot;font-size: 18px&quot;&gt;a[0]&lt;/span&gt;" style="text;html=1;strokeColor=none;fillColor=none;align=center;verticalAlign=middle;whiteSpace=wrap;rounded=0;" parent="1" vertex="1">
                    <mxGeometry x="215" y="958" width="40" height="20" as="geometry"/>
                </mxCell>
                <mxCell id="111" value="" style="endArrow=classic;startArrow=oval;html=1;strokeColor=#FFFF66;strokeWidth=2;startFill=1;startSize=3;" parent="1" edge="1">
                    <mxGeometry width="50" height="50" relative="1" as="geometry">
                        <mxPoint x="170" y="971.76" as="sourcePoint"/>
                        <mxPoint x="218" y="971.76" as="targetPoint"/>
                    </mxGeometry>
                </mxCell>
                <mxCell id="113" value="&lt;span style=&quot;font-size: 18px&quot;&gt;备用链表表头&lt;/span&gt;" style="text;html=1;strokeColor=none;fillColor=none;align=center;verticalAlign=middle;whiteSpace=wrap;rounded=0;" parent="1" vertex="1">
                    <mxGeometry x="38" y="962" width="121" height="20" as="geometry"/>
                </mxCell>
                <mxCell id="115" value="&lt;font style=&quot;font-size: 18px&quot;&gt;&amp;nbsp;, 2&lt;/font&gt;" style="text;html=1;strokeColor=#A50040;fillColor=#d80073;align=center;verticalAlign=middle;whiteSpace=wrap;rounded=0;fontColor=#ffffff;" parent="1" vertex="1">
                    <mxGeometry x="277" y="959" width="40" height="20" as="geometry"/>
                </mxCell>
                <mxCell id="116" value="&lt;font style=&quot;font-size: 18px&quot;&gt;&amp;nbsp;, 4&lt;/font&gt;" style="text;html=1;strokeColor=#A50040;fillColor=#d80073;align=center;verticalAlign=middle;whiteSpace=wrap;rounded=0;fontColor=#ffffff;" parent="1" vertex="1">
                    <mxGeometry x="277" y="1021" width="40" height="20" as="geometry"/>
                </mxCell>
                <mxCell id="117" value="&lt;font style=&quot;font-size: 18px&quot;&gt;&amp;nbsp;, 5&lt;/font&gt;" style="text;html=1;strokeColor=#A50040;fillColor=#d80073;align=center;verticalAlign=middle;whiteSpace=wrap;rounded=0;fontColor=#ffffff;" parent="1" vertex="1">
                    <mxGeometry x="277" y="1087" width="40" height="20" as="geometry"/>
                </mxCell>
                <mxCell id="119" value="&lt;font style=&quot;font-size: 18px&quot;&gt;&amp;nbsp;, 3&lt;/font&gt;" style="text;html=1;strokeColor=#A50040;fillColor=#d80073;align=center;verticalAlign=middle;whiteSpace=wrap;rounded=0;fontColor=#ffffff;" parent="1" vertex="1">
                    <mxGeometry x="277" y="1021" width="40" height="20" as="geometry"/>
                </mxCell>
                <mxCell id="120" value="&lt;font style=&quot;font-size: 18px&quot;&gt;1 , 0&lt;/font&gt;" style="text;html=1;align=center;verticalAlign=middle;whiteSpace=wrap;rounded=0;" parent="1" vertex="1">
                    <mxGeometry x="277" y="991" width="40" height="20" as="geometry"/>
                </mxCell>
                <mxCell id="121" value="&lt;font style=&quot;font-size: 18px&quot;&gt;&amp;nbsp;, 0&lt;/font&gt;" style="text;html=1;strokeColor=#A50040;fillColor=#d80073;align=center;verticalAlign=middle;whiteSpace=wrap;rounded=0;fontColor=#ffffff;" parent="1" vertex="1">
                    <mxGeometry x="277" y="1119" width="40" height="20" as="geometry"/>
                </mxCell>
                <mxCell id="122" value="&lt;font style=&quot;font-size: 18px&quot;&gt;&amp;nbsp;, 4&lt;/font&gt;" style="text;html=1;strokeColor=#A50040;fillColor=#d80073;align=center;verticalAlign=middle;whiteSpace=wrap;rounded=0;fontColor=#ffffff;" parent="1" vertex="1">
                    <mxGeometry x="277" y="1053" width="40" height="20" as="geometry"/>
                </mxCell>
                <mxCell id="123" value="" style="endArrow=none;html=1;strokeWidth=2;strokeColor=#FFFF66;" parent="1" edge="1">
                    <mxGeometry width="50" height="50" relative="1" as="geometry">
                        <mxPoint x="351.5" y="730.9999999999998" as="sourcePoint"/>
                        <mxPoint x="351.5" y="499" as="targetPoint"/>
                    </mxGeometry>
                </mxCell>
                <mxCell id="124" value="" style="endArrow=none;html=1;strokeColor=#FFFF66;strokeWidth=2;" parent="1" edge="1">
                    <mxGeometry width="50" height="50" relative="1" as="geometry">
                        <mxPoint x="351.5" y="582" as="sourcePoint"/>
                        <mxPoint x="428.5" y="582" as="targetPoint"/>
                    </mxGeometry>
                </mxCell>
                <mxCell id="125" value="" style="endArrow=none;html=1;strokeColor=#FFFF66;strokeWidth=2;" parent="1" edge="1">
                    <mxGeometry width="50" height="50" relative="1" as="geometry">
                        <mxPoint x="351.5" y="551" as="sourcePoint"/>
                        <mxPoint x="428.5" y="551" as="targetPoint"/>
                    </mxGeometry>
                </mxCell>
                <mxCell id="126" value="" style="endArrow=none;html=1;strokeColor=#FFFF66;strokeWidth=2;" parent="1" edge="1">
                    <mxGeometry width="50" height="50" relative="1" as="geometry">
                        <mxPoint x="351.5" y="551" as="sourcePoint"/>
                        <mxPoint x="428.5" y="551" as="targetPoint"/>
                    </mxGeometry>
                </mxCell>
                <mxCell id="127" value="" style="endArrow=none;html=1;strokeColor=#FFFF66;strokeWidth=2;" parent="1" edge="1">
                    <mxGeometry width="50" height="50" relative="1" as="geometry">
                        <mxPoint x="351.5" y="551" as="sourcePoint"/>
                        <mxPoint x="428.5" y="551" as="targetPoint"/>
                    </mxGeometry>
                </mxCell>
                <mxCell id="128" value="" style="endArrow=none;html=1;strokeColor=#FFFF66;strokeWidth=2;" parent="1" edge="1">
                    <mxGeometry width="50" height="50" relative="1" as="geometry">
                        <mxPoint x="351.5" y="614" as="sourcePoint"/>
                        <mxPoint x="428.5" y="614" as="targetPoint"/>
                    </mxGeometry>
                </mxCell>
                <mxCell id="129" value="" style="endArrow=none;html=1;strokeColor=#FFFF66;strokeWidth=2;" parent="1" edge="1">
                    <mxGeometry width="50" height="50" relative="1" as="geometry">
                        <mxPoint x="351.5" y="647" as="sourcePoint"/>
                        <mxPoint x="428.5" y="647" as="targetPoint"/>
                    </mxGeometry>
                </mxCell>
                <mxCell id="130" value="" style="endArrow=none;html=1;strokeColor=#FFFF66;strokeWidth=2;" parent="1" edge="1">
                    <mxGeometry width="50" height="50" relative="1" as="geometry">
                        <mxPoint x="351.5" y="680" as="sourcePoint"/>
                        <mxPoint x="428.5" y="680" as="targetPoint"/>
                    </mxGeometry>
                </mxCell>
                <mxCell id="131" value="" style="endArrow=none;html=1;strokeColor=#FFFF66;strokeWidth=2;" parent="1" edge="1">
                    <mxGeometry width="50" height="50" relative="1" as="geometry">
                        <mxPoint x="351.5" y="713" as="sourcePoint"/>
                        <mxPoint x="428.5" y="713" as="targetPoint"/>
                    </mxGeometry>
                </mxCell>
                <mxCell id="132" value="" style="endArrow=none;html=1;strokeWidth=2;strokeColor=#FFFF66;" parent="1" edge="1">
                    <mxGeometry width="50" height="50" relative="1" as="geometry">
                        <mxPoint x="428.5" y="730" as="sourcePoint"/>
                        <mxPoint x="428.5" y="499" as="targetPoint"/>
                    </mxGeometry>
                </mxCell>
                <mxCell id="133" value="&lt;span style=&quot;font-size: 18px&quot;&gt;a[1]&lt;/span&gt;" style="text;html=1;strokeColor=none;fillColor=none;align=center;verticalAlign=middle;whiteSpace=wrap;rounded=0;" parent="1" vertex="1">
                    <mxGeometry x="311.5" y="556" width="40" height="20" as="geometry"/>
                </mxCell>
                <mxCell id="134" value="&lt;span style=&quot;font-size: 18px&quot;&gt;a[2]&lt;/span&gt;" style="text;html=1;strokeColor=none;fillColor=none;align=center;verticalAlign=middle;whiteSpace=wrap;rounded=0;" parent="1" vertex="1">
                    <mxGeometry x="311.5" y="587" width="40" height="20" as="geometry"/>
                </mxCell>
                <mxCell id="135" value="&lt;span style=&quot;font-size: 18px&quot;&gt;a[3]&lt;/span&gt;" style="text;html=1;strokeColor=none;fillColor=none;align=center;verticalAlign=middle;whiteSpace=wrap;rounded=0;" parent="1" vertex="1">
                    <mxGeometry x="311.5" y="623" width="40" height="20" as="geometry"/>
                </mxCell>
                <mxCell id="136" value="&lt;span style=&quot;font-size: 18px&quot;&gt;a[4]&lt;/span&gt;" style="text;html=1;strokeColor=none;fillColor=none;align=center;verticalAlign=middle;whiteSpace=wrap;rounded=0;" parent="1" vertex="1">
                    <mxGeometry x="311.5" y="653" width="40" height="20" as="geometry"/>
                </mxCell>
                <mxCell id="137" value="&lt;span style=&quot;font-size: 18px&quot;&gt;a[5]&lt;/span&gt;" style="text;html=1;strokeColor=none;fillColor=none;align=center;verticalAlign=middle;whiteSpace=wrap;rounded=0;" parent="1" vertex="1">
                    <mxGeometry x="311.5" y="685" width="40" height="20" as="geometry"/>
                </mxCell>
                <mxCell id="138" value="" style="endArrow=none;html=1;strokeColor=#FFFF66;strokeWidth=2;" parent="1" edge="1">
                    <mxGeometry width="50" height="50" relative="1" as="geometry">
                        <mxPoint x="351.5" y="520" as="sourcePoint"/>
                        <mxPoint x="428.5" y="520" as="targetPoint"/>
                    </mxGeometry>
                </mxCell>
                <mxCell id="139" value="&lt;span style=&quot;font-size: 18px&quot;&gt;a[0]&lt;/span&gt;" style="text;html=1;strokeColor=none;fillColor=none;align=center;verticalAlign=middle;whiteSpace=wrap;rounded=0;" parent="1" vertex="1">
                    <mxGeometry x="311.5" y="524" width="40" height="20" as="geometry"/>
                </mxCell>
                <mxCell id="140" value="" style="endArrow=classic;startArrow=oval;html=1;strokeColor=#FFFF66;strokeWidth=2;startFill=1;startSize=3;" parent="1" edge="1">
                    <mxGeometry width="50" height="50" relative="1" as="geometry">
                        <mxPoint x="266.5" y="537.76" as="sourcePoint"/>
                        <mxPoint x="314.5" y="537.76" as="targetPoint"/>
                    </mxGeometry>
                </mxCell>
                <mxCell id="141" value="&lt;span style=&quot;font-size: 18px&quot;&gt;备用链表表头&lt;/span&gt;" style="text;html=1;strokeColor=none;fillColor=none;align=center;verticalAlign=middle;whiteSpace=wrap;rounded=0;" parent="1" vertex="1">
                    <mxGeometry x="134.5" y="528" width="121" height="20" as="geometry"/>
                </mxCell>
                <mxCell id="142" value="&lt;font style=&quot;font-size: 18px&quot;&gt;&amp;nbsp;, 1&lt;/font&gt;" style="text;html=1;strokeColor=#A50040;fillColor=#d80073;align=center;verticalAlign=middle;whiteSpace=wrap;rounded=0;fontColor=#ffffff;" parent="1" vertex="1">
                    <mxGeometry x="373.5" y="525" width="40" height="20" as="geometry"/>
                </mxCell>
                <mxCell id="143" value="&lt;font style=&quot;font-size: 18px&quot;&gt;&amp;nbsp;, 4&lt;/font&gt;" style="text;html=1;strokeColor=#A50040;fillColor=#d80073;align=center;verticalAlign=middle;whiteSpace=wrap;rounded=0;fontColor=#ffffff;" parent="1" vertex="1">
                    <mxGeometry x="373.5" y="587" width="40" height="20" as="geometry"/>
                </mxCell>
                <mxCell id="144" value="&lt;font style=&quot;font-size: 18px&quot;&gt;&amp;nbsp;, 5&lt;/font&gt;" style="text;html=1;strokeColor=#A50040;fillColor=#d80073;align=center;verticalAlign=middle;whiteSpace=wrap;rounded=0;fontColor=#ffffff;" parent="1" vertex="1">
                    <mxGeometry x="373.5" y="653" width="40" height="20" as="geometry"/>
                </mxCell>
                <mxCell id="145" value="&lt;font style=&quot;font-size: 18px&quot;&gt;&amp;nbsp;, 3&lt;/font&gt;" style="text;html=1;strokeColor=#A50040;fillColor=#d80073;align=center;verticalAlign=middle;whiteSpace=wrap;rounded=0;fontColor=#ffffff;" parent="1" vertex="1">
                    <mxGeometry x="373.5" y="587" width="40" height="20" as="geometry"/>
                </mxCell>
                <mxCell id="146" value="&lt;font style=&quot;font-size: 18px&quot;&gt;&amp;nbsp;, 2&lt;/font&gt;" style="text;html=1;strokeColor=#A50040;fillColor=#d80073;align=center;verticalAlign=middle;whiteSpace=wrap;rounded=0;fontColor=#ffffff;" parent="1" vertex="1">
                    <mxGeometry x="373.5" y="557" width="40" height="20" as="geometry"/>
                </mxCell>
                <mxCell id="147" value="&lt;font style=&quot;font-size: 18px&quot;&gt;&amp;nbsp;, 0&lt;/font&gt;" style="text;html=1;strokeColor=#A50040;fillColor=#d80073;align=center;verticalAlign=middle;whiteSpace=wrap;rounded=0;fontColor=#ffffff;" parent="1" vertex="1">
                    <mxGeometry x="373.5" y="685" width="40" height="20" as="geometry"/>
                </mxCell>
                <mxCell id="148" value="&lt;font style=&quot;font-size: 18px&quot;&gt;&amp;nbsp;, 4&lt;/font&gt;" style="text;html=1;strokeColor=#A50040;fillColor=#d80073;align=center;verticalAlign=middle;whiteSpace=wrap;rounded=0;fontColor=#ffffff;" parent="1" vertex="1">
                    <mxGeometry x="373.5" y="619" width="40" height="20" as="geometry"/>
                </mxCell>
                <mxCell id="150" value="" style="endArrow=classic;startArrow=oval;html=1;strokeColor=#FFFF66;strokeWidth=2;startFill=1;startSize=3;" parent="1" edge="1">
                    <mxGeometry width="50" height="50" relative="1" as="geometry">
                        <mxPoint x="170" y="999.76" as="sourcePoint"/>
                        <mxPoint x="218" y="999.76" as="targetPoint"/>
                    </mxGeometry>
                </mxCell>
                <mxCell id="151" value="&lt;span style=&quot;font-size: 18px&quot;&gt;数据链表表头&lt;/span&gt;" style="text;html=1;strokeColor=none;fillColor=none;align=center;verticalAlign=middle;whiteSpace=wrap;rounded=0;" parent="1" vertex="1">
                    <mxGeometry x="38" y="990" width="121" height="20" as="geometry"/>
                </mxCell>
                <mxCell id="152" value="" style="endArrow=none;html=1;strokeWidth=2;strokeColor=#FFFF66;" parent="1" edge="1">
                    <mxGeometry width="50" height="50" relative="1" as="geometry">
                        <mxPoint x="631" y="1140.4999999999998" as="sourcePoint"/>
                        <mxPoint x="631" y="908.5" as="targetPoint"/>
                    </mxGeometry>
                </mxCell>
                <mxCell id="153" value="" style="endArrow=none;html=1;strokeColor=#FFFF66;strokeWidth=2;" parent="1" edge="1">
                    <mxGeometry width="50" height="50" relative="1" as="geometry">
                        <mxPoint x="631" y="991.5" as="sourcePoint"/>
                        <mxPoint x="708" y="991.5" as="targetPoint"/>
                    </mxGeometry>
                </mxCell>
                <mxCell id="154" value="" style="endArrow=none;html=1;strokeColor=#FFFF66;strokeWidth=2;" parent="1" edge="1">
                    <mxGeometry width="50" height="50" relative="1" as="geometry">
                        <mxPoint x="631" y="960.4999999999998" as="sourcePoint"/>
                        <mxPoint x="708" y="960.4999999999998" as="targetPoint"/>
                    </mxGeometry>
                </mxCell>
                <mxCell id="155" value="" style="endArrow=none;html=1;strokeColor=#FFFF66;strokeWidth=2;" parent="1" edge="1">
                    <mxGeometry width="50" height="50" relative="1" as="geometry">
                        <mxPoint x="631" y="960.4999999999998" as="sourcePoint"/>
                        <mxPoint x="708" y="960.4999999999998" as="targetPoint"/>
                    </mxGeometry>
                </mxCell>
                <mxCell id="156" value="" style="endArrow=none;html=1;strokeColor=#FFFF66;strokeWidth=2;" parent="1" edge="1">
                    <mxGeometry width="50" height="50" relative="1" as="geometry">
                        <mxPoint x="631" y="960.4999999999998" as="sourcePoint"/>
                        <mxPoint x="708" y="960.4999999999998" as="targetPoint"/>
                    </mxGeometry>
                </mxCell>
                <mxCell id="157" value="" style="endArrow=none;html=1;strokeColor=#FFFF66;strokeWidth=2;" parent="1" edge="1">
                    <mxGeometry width="50" height="50" relative="1" as="geometry">
                        <mxPoint x="631" y="1023.5" as="sourcePoint"/>
                        <mxPoint x="708" y="1023.5" as="targetPoint"/>
                    </mxGeometry>
                </mxCell>
                <mxCell id="158" value="" style="endArrow=none;html=1;strokeColor=#FFFF66;strokeWidth=2;" parent="1" edge="1">
                    <mxGeometry width="50" height="50" relative="1" as="geometry">
                        <mxPoint x="631" y="1056.5" as="sourcePoint"/>
                        <mxPoint x="708" y="1056.5" as="targetPoint"/>
                    </mxGeometry>
                </mxCell>
                <mxCell id="159" value="" style="endArrow=none;html=1;strokeColor=#FFFF66;strokeWidth=2;" parent="1" edge="1">
                    <mxGeometry width="50" height="50" relative="1" as="geometry">
                        <mxPoint x="631" y="1089.5" as="sourcePoint"/>
                        <mxPoint x="708" y="1089.5" as="targetPoint"/>
                    </mxGeometry>
                </mxCell>
                <mxCell id="160" value="" style="endArrow=none;html=1;strokeColor=#FFFF66;strokeWidth=2;" parent="1" edge="1">
                    <mxGeometry width="50" height="50" relative="1" as="geometry">
                        <mxPoint x="631" y="1122.5" as="sourcePoint"/>
                        <mxPoint x="708" y="1122.5" as="targetPoint"/>
                    </mxGeometry>
                </mxCell>
                <mxCell id="161" value="" style="endArrow=none;html=1;strokeWidth=2;strokeColor=#FFFF66;" parent="1" edge="1">
                    <mxGeometry width="50" height="50" relative="1" as="geometry">
                        <mxPoint x="708" y="1139.5" as="sourcePoint"/>
                        <mxPoint x="708" y="908.5" as="targetPoint"/>
                    </mxGeometry>
                </mxCell>
                <mxCell id="162" value="&lt;span style=&quot;font-size: 18px&quot;&gt;a[1]&lt;/span&gt;" style="text;html=1;strokeColor=none;fillColor=none;align=center;verticalAlign=middle;whiteSpace=wrap;rounded=0;" parent="1" vertex="1">
                    <mxGeometry x="591" y="965.5" width="40" height="20" as="geometry"/>
                </mxCell>
                <mxCell id="163" value="&lt;span style=&quot;font-size: 18px&quot;&gt;a[2]&lt;/span&gt;" style="text;html=1;strokeColor=none;fillColor=none;align=center;verticalAlign=middle;whiteSpace=wrap;rounded=0;" parent="1" vertex="1">
                    <mxGeometry x="591" y="996.5" width="40" height="20" as="geometry"/>
                </mxCell>
                <mxCell id="164" value="&lt;span style=&quot;font-size: 18px&quot;&gt;a[3]&lt;/span&gt;" style="text;html=1;strokeColor=none;fillColor=none;align=center;verticalAlign=middle;whiteSpace=wrap;rounded=0;" parent="1" vertex="1">
                    <mxGeometry x="591" y="1032.5" width="40" height="20" as="geometry"/>
                </mxCell>
                <mxCell id="165" value="&lt;span style=&quot;font-size: 18px&quot;&gt;a[4]&lt;/span&gt;" style="text;html=1;strokeColor=none;fillColor=none;align=center;verticalAlign=middle;whiteSpace=wrap;rounded=0;" parent="1" vertex="1">
                    <mxGeometry x="591" y="1062.5" width="40" height="20" as="geometry"/>
                </mxCell>
                <mxCell id="166" value="&lt;span style=&quot;font-size: 18px&quot;&gt;a[5]&lt;/span&gt;" style="text;html=1;strokeColor=none;fillColor=none;align=center;verticalAlign=middle;whiteSpace=wrap;rounded=0;" parent="1" vertex="1">
                    <mxGeometry x="591" y="1094.5" width="40" height="20" as="geometry"/>
                </mxCell>
                <mxCell id="167" value="" style="endArrow=none;html=1;strokeColor=#FFFF66;strokeWidth=2;" parent="1" edge="1">
                    <mxGeometry width="50" height="50" relative="1" as="geometry">
                        <mxPoint x="631" y="929.5" as="sourcePoint"/>
                        <mxPoint x="708" y="929.5" as="targetPoint"/>
                    </mxGeometry>
                </mxCell>
                <mxCell id="168" value="&lt;span style=&quot;font-size: 18px&quot;&gt;a[0]&lt;/span&gt;" style="text;html=1;strokeColor=none;fillColor=none;align=center;verticalAlign=middle;whiteSpace=wrap;rounded=0;" parent="1" vertex="1">
                    <mxGeometry x="591" y="933.5" width="40" height="20" as="geometry"/>
                </mxCell>
                <mxCell id="169" value="" style="endArrow=classic;startArrow=oval;html=1;strokeColor=#FFFF66;strokeWidth=2;startFill=1;startSize=3;" parent="1" edge="1">
                    <mxGeometry width="50" height="50" relative="1" as="geometry">
                        <mxPoint x="546" y="947.26" as="sourcePoint"/>
                        <mxPoint x="594" y="947.26" as="targetPoint"/>
                    </mxGeometry>
                </mxCell>
                <mxCell id="170" value="&lt;span style=&quot;font-size: 18px&quot;&gt;备用链表表头&lt;/span&gt;" style="text;html=1;strokeColor=none;fillColor=none;align=center;verticalAlign=middle;whiteSpace=wrap;rounded=0;" parent="1" vertex="1">
                    <mxGeometry x="414" y="937.5" width="121" height="20" as="geometry"/>
                </mxCell>
                <mxCell id="171" value="&lt;font style=&quot;font-size: 18px&quot;&gt;&amp;nbsp;, 2&lt;/font&gt;" style="text;html=1;strokeColor=#A50040;fillColor=#d80073;align=center;verticalAlign=middle;whiteSpace=wrap;rounded=0;fontColor=#ffffff;" parent="1" vertex="1">
                    <mxGeometry x="653" y="934.5" width="40" height="20" as="geometry"/>
                </mxCell>
                <mxCell id="172" value="&lt;font style=&quot;font-size: 18px&quot;&gt;&amp;nbsp;, 4&lt;/font&gt;" style="text;html=1;strokeColor=#A50040;fillColor=#d80073;align=center;verticalAlign=middle;whiteSpace=wrap;rounded=0;fontColor=#ffffff;" parent="1" vertex="1">
                    <mxGeometry x="653" y="996.5" width="40" height="20" as="geometry"/>
                </mxCell>
                <mxCell id="173" value="&lt;font style=&quot;font-size: 18px&quot;&gt;&amp;nbsp;, 5&lt;/font&gt;" style="text;html=1;strokeColor=#A50040;fillColor=#d80073;align=center;verticalAlign=middle;whiteSpace=wrap;rounded=0;fontColor=#ffffff;" parent="1" vertex="1">
                    <mxGeometry x="653" y="1062.5" width="40" height="20" as="geometry"/>
                </mxCell>
                <mxCell id="174" value="&lt;font style=&quot;font-size: 18px&quot;&gt;&amp;nbsp;, 3&lt;/font&gt;" style="text;html=1;strokeColor=#A50040;fillColor=#d80073;align=center;verticalAlign=middle;whiteSpace=wrap;rounded=0;fontColor=#ffffff;" parent="1" vertex="1">
                    <mxGeometry x="653" y="996.5" width="40" height="20" as="geometry"/>
                </mxCell>
                <mxCell id="175" value="&lt;font style=&quot;font-size: 18px&quot;&gt;1 , 3&lt;/font&gt;" style="text;html=1;align=center;verticalAlign=middle;whiteSpace=wrap;rounded=0;" parent="1" vertex="1">
                    <mxGeometry x="653" y="966.5" width="40" height="20" as="geometry"/>
                </mxCell>
                <mxCell id="176" value="&lt;font style=&quot;font-size: 18px&quot;&gt;&amp;nbsp;, 0&lt;/font&gt;" style="text;html=1;strokeColor=#A50040;fillColor=#d80073;align=center;verticalAlign=middle;whiteSpace=wrap;rounded=0;fontColor=#ffffff;" parent="1" vertex="1">
                    <mxGeometry x="653" y="1094.5" width="40" height="20" as="geometry"/>
                </mxCell>
                <mxCell id="177" value="&lt;font style=&quot;font-size: 18px&quot;&gt;2 , 0&lt;/font&gt;" style="text;html=1;align=center;verticalAlign=middle;whiteSpace=wrap;rounded=0;" parent="1" vertex="1">
                    <mxGeometry x="653" y="1028.5" width="40" height="20" as="geometry"/>
                </mxCell>
                <mxCell id="178" value="&lt;span style=&quot;font-size: 18px&quot;&gt;添加 2&lt;/span&gt;" style="text;html=1;strokeColor=none;fillColor=none;align=center;verticalAlign=middle;whiteSpace=wrap;rounded=0;" parent="1" vertex="1">
                    <mxGeometry x="578" y="875.5" width="195" height="20" as="geometry"/>
                </mxCell>
                <mxCell id="179" value="" style="endArrow=classic;startArrow=oval;html=1;strokeColor=#FFFF66;strokeWidth=2;startFill=1;startSize=3;" parent="1" edge="1">
                    <mxGeometry width="50" height="50" relative="1" as="geometry">
                        <mxPoint x="546" y="975.26" as="sourcePoint"/>
                        <mxPoint x="594" y="975.26" as="targetPoint"/>
                    </mxGeometry>
                </mxCell>
                <mxCell id="180" value="&lt;span style=&quot;font-size: 18px&quot;&gt;数据链表表头&lt;/span&gt;" style="text;html=1;strokeColor=none;fillColor=none;align=center;verticalAlign=middle;whiteSpace=wrap;rounded=0;" parent="1" vertex="1">
                    <mxGeometry x="414" y="965.5" width="121" height="20" as="geometry"/>
                </mxCell>
                <mxCell id="181" value="&lt;span style=&quot;font-size: 18px&quot;&gt;添加 1&lt;/span&gt;" style="text;html=1;strokeColor=none;fillColor=none;align=center;verticalAlign=middle;whiteSpace=wrap;rounded=0;" parent="1" vertex="1">
                    <mxGeometry x="196.5" y="900" width="195" height="20" as="geometry"/>
                </mxCell>
                <mxCell id="182" value="" style="endArrow=none;html=1;strokeWidth=2;strokeColor=#FFFF66;" parent="1" edge="1">
                    <mxGeometry width="50" height="50" relative="1" as="geometry">
                        <mxPoint x="1006" y="1141.9999999999995" as="sourcePoint"/>
                        <mxPoint x="1006" y="910.0000000000002" as="targetPoint"/>
                    </mxGeometry>
                </mxCell>
                <mxCell id="183" value="" style="endArrow=none;html=1;strokeColor=#FFFF66;strokeWidth=2;" parent="1" edge="1">
                    <mxGeometry width="50" height="50" relative="1" as="geometry">
                        <mxPoint x="1006" y="993" as="sourcePoint"/>
                        <mxPoint x="1083" y="993" as="targetPoint"/>
                    </mxGeometry>
                </mxCell>
                <mxCell id="184" value="" style="endArrow=none;html=1;strokeColor=#FFFF66;strokeWidth=2;" parent="1" edge="1">
                    <mxGeometry width="50" height="50" relative="1" as="geometry">
                        <mxPoint x="1006" y="961.9999999999995" as="sourcePoint"/>
                        <mxPoint x="1083" y="961.9999999999995" as="targetPoint"/>
                    </mxGeometry>
                </mxCell>
                <mxCell id="185" value="" style="endArrow=none;html=1;strokeColor=#FFFF66;strokeWidth=2;" parent="1" edge="1">
                    <mxGeometry width="50" height="50" relative="1" as="geometry">
                        <mxPoint x="1006" y="961.9999999999995" as="sourcePoint"/>
                        <mxPoint x="1083" y="961.9999999999995" as="targetPoint"/>
                    </mxGeometry>
                </mxCell>
                <mxCell id="186" value="" style="endArrow=none;html=1;strokeColor=#FFFF66;strokeWidth=2;" parent="1" edge="1">
                    <mxGeometry width="50" height="50" relative="1" as="geometry">
                        <mxPoint x="1006" y="961.9999999999995" as="sourcePoint"/>
                        <mxPoint x="1083" y="961.9999999999995" as="targetPoint"/>
                    </mxGeometry>
                </mxCell>
                <mxCell id="187" value="" style="endArrow=none;html=1;strokeColor=#FFFF66;strokeWidth=2;" parent="1" edge="1">
                    <mxGeometry width="50" height="50" relative="1" as="geometry">
                        <mxPoint x="1006" y="1024.9999999999998" as="sourcePoint"/>
                        <mxPoint x="1083" y="1024.9999999999998" as="targetPoint"/>
                    </mxGeometry>
                </mxCell>
                <mxCell id="188" value="" style="endArrow=none;html=1;strokeColor=#FFFF66;strokeWidth=2;" parent="1" edge="1">
                    <mxGeometry width="50" height="50" relative="1" as="geometry">
                        <mxPoint x="1006" y="1058" as="sourcePoint"/>
                        <mxPoint x="1083" y="1058" as="targetPoint"/>
                    </mxGeometry>
                </mxCell>
                <mxCell id="189" value="" style="endArrow=none;html=1;strokeColor=#FFFF66;strokeWidth=2;" parent="1" edge="1">
                    <mxGeometry width="50" height="50" relative="1" as="geometry">
                        <mxPoint x="1006" y="1091" as="sourcePoint"/>
                        <mxPoint x="1083" y="1091" as="targetPoint"/>
                    </mxGeometry>
                </mxCell>
                <mxCell id="190" value="" style="endArrow=none;html=1;strokeColor=#FFFF66;strokeWidth=2;" parent="1" edge="1">
                    <mxGeometry width="50" height="50" relative="1" as="geometry">
                        <mxPoint x="1006" y="1124" as="sourcePoint"/>
                        <mxPoint x="1083" y="1124" as="targetPoint"/>
                    </mxGeometry>
                </mxCell>
                <mxCell id="191" value="" style="endArrow=none;html=1;strokeWidth=2;strokeColor=#FFFF66;" parent="1" edge="1">
                    <mxGeometry width="50" height="50" relative="1" as="geometry">
                        <mxPoint x="1083" y="1141" as="sourcePoint"/>
                        <mxPoint x="1083" y="910.0000000000002" as="targetPoint"/>
                    </mxGeometry>
                </mxCell>
                <mxCell id="192" value="&lt;span style=&quot;font-size: 18px&quot;&gt;a[1]&lt;/span&gt;" style="text;html=1;strokeColor=none;fillColor=none;align=center;verticalAlign=middle;whiteSpace=wrap;rounded=0;" parent="1" vertex="1">
                    <mxGeometry x="966" y="967" width="40" height="20" as="geometry"/>
                </mxCell>
                <mxCell id="193" value="&lt;span style=&quot;font-size: 18px&quot;&gt;a[2]&lt;/span&gt;" style="text;html=1;strokeColor=none;fillColor=none;align=center;verticalAlign=middle;whiteSpace=wrap;rounded=0;" parent="1" vertex="1">
                    <mxGeometry x="966" y="998" width="40" height="20" as="geometry"/>
                </mxCell>
                <mxCell id="194" value="&lt;span style=&quot;font-size: 18px&quot;&gt;a[3]&lt;/span&gt;" style="text;html=1;strokeColor=none;fillColor=none;align=center;verticalAlign=middle;whiteSpace=wrap;rounded=0;" parent="1" vertex="1">
                    <mxGeometry x="966" y="1034" width="40" height="20" as="geometry"/>
                </mxCell>
                <mxCell id="195" value="&lt;span style=&quot;font-size: 18px&quot;&gt;a[4]&lt;/span&gt;" style="text;html=1;strokeColor=none;fillColor=none;align=center;verticalAlign=middle;whiteSpace=wrap;rounded=0;" parent="1" vertex="1">
                    <mxGeometry x="966" y="1064" width="40" height="20" as="geometry"/>
                </mxCell>
                <mxCell id="196" value="&lt;span style=&quot;font-size: 18px&quot;&gt;a[5]&lt;/span&gt;" style="text;html=1;strokeColor=none;fillColor=none;align=center;verticalAlign=middle;whiteSpace=wrap;rounded=0;" parent="1" vertex="1">
                    <mxGeometry x="966" y="1096" width="40" height="20" as="geometry"/>
                </mxCell>
                <mxCell id="197" value="" style="endArrow=none;html=1;strokeColor=#FFFF66;strokeWidth=2;" parent="1" edge="1">
                    <mxGeometry width="50" height="50" relative="1" as="geometry">
                        <mxPoint x="1006" y="931" as="sourcePoint"/>
                        <mxPoint x="1083" y="931" as="targetPoint"/>
                    </mxGeometry>
                </mxCell>
                <mxCell id="198" value="&lt;span style=&quot;font-size: 18px&quot;&gt;a[0]&lt;/span&gt;" style="text;html=1;strokeColor=none;fillColor=none;align=center;verticalAlign=middle;whiteSpace=wrap;rounded=0;" parent="1" vertex="1">
                    <mxGeometry x="966" y="935" width="40" height="20" as="geometry"/>
                </mxCell>
                <mxCell id="199" value="" style="endArrow=classic;startArrow=oval;html=1;strokeColor=#FFFF66;strokeWidth=2;startFill=1;startSize=3;" parent="1" edge="1">
                    <mxGeometry width="50" height="50" relative="1" as="geometry">
                        <mxPoint x="921" y="948.76" as="sourcePoint"/>
                        <mxPoint x="969" y="948.76" as="targetPoint"/>
                    </mxGeometry>
                </mxCell>
                <mxCell id="200" value="&lt;span style=&quot;font-size: 18px&quot;&gt;备用链表表头&lt;/span&gt;" style="text;html=1;strokeColor=none;fillColor=none;align=center;verticalAlign=middle;whiteSpace=wrap;rounded=0;" parent="1" vertex="1">
                    <mxGeometry x="789" y="939" width="121" height="20" as="geometry"/>
                </mxCell>
                <mxCell id="201" value="&lt;font style=&quot;font-size: 18px&quot;&gt;&amp;nbsp;, 2&lt;/font&gt;" style="text;html=1;strokeColor=#A50040;fillColor=#d80073;align=center;verticalAlign=middle;whiteSpace=wrap;rounded=0;fontColor=#ffffff;" parent="1" vertex="1">
                    <mxGeometry x="1028" y="936" width="40" height="20" as="geometry"/>
                </mxCell>
                <mxCell id="202" value="&lt;font style=&quot;font-size: 18px&quot;&gt;&amp;nbsp;, 4&lt;/font&gt;" style="text;html=1;strokeColor=#A50040;fillColor=#d80073;align=center;verticalAlign=middle;whiteSpace=wrap;rounded=0;fontColor=#ffffff;" parent="1" vertex="1">
                    <mxGeometry x="1028" y="998" width="40" height="20" as="geometry"/>
                </mxCell>
                <mxCell id="203" value="&lt;font style=&quot;font-size: 18px&quot;&gt;&amp;nbsp;, 5&lt;/font&gt;" style="text;html=1;strokeColor=#A50040;fillColor=#d80073;align=center;verticalAlign=middle;whiteSpace=wrap;rounded=0;fontColor=#ffffff;" parent="1" vertex="1">
                    <mxGeometry x="1028" y="1064" width="40" height="20" as="geometry"/>
                </mxCell>
                <mxCell id="204" value="&lt;font style=&quot;font-size: 18px&quot;&gt;&amp;nbsp;, 3&lt;/font&gt;" style="text;html=1;strokeColor=#A50040;fillColor=#d80073;align=center;verticalAlign=middle;whiteSpace=wrap;rounded=0;fontColor=#ffffff;" parent="1" vertex="1">
                    <mxGeometry x="1028" y="998" width="40" height="20" as="geometry"/>
                </mxCell>
                <mxCell id="205" value="&lt;font style=&quot;font-size: 18px&quot;&gt;1 , 3&lt;/font&gt;" style="text;html=1;align=center;verticalAlign=middle;whiteSpace=wrap;rounded=0;" parent="1" vertex="1">
                    <mxGeometry x="1028" y="968" width="40" height="20" as="geometry"/>
                </mxCell>
                <mxCell id="206" value="&lt;font style=&quot;font-size: 18px&quot;&gt;3 , 0&lt;/font&gt;" style="text;html=1;align=center;verticalAlign=middle;whiteSpace=wrap;rounded=0;" parent="1" vertex="1">
                    <mxGeometry x="1028" y="1096" width="40" height="20" as="geometry"/>
                </mxCell>
                <mxCell id="207" value="&lt;font style=&quot;font-size: 18px&quot;&gt;2 , 5&lt;/font&gt;" style="text;html=1;align=center;verticalAlign=middle;whiteSpace=wrap;rounded=0;" parent="1" vertex="1">
                    <mxGeometry x="1028" y="1030" width="40" height="20" as="geometry"/>
                </mxCell>
                <mxCell id="208" value="&lt;span style=&quot;font-size: 18px&quot;&gt;添加 3&lt;/span&gt;" style="text;html=1;strokeColor=none;fillColor=none;align=center;verticalAlign=middle;whiteSpace=wrap;rounded=0;" parent="1" vertex="1">
                    <mxGeometry x="953" y="877" width="195" height="20" as="geometry"/>
                </mxCell>
                <mxCell id="209" value="" style="endArrow=classic;startArrow=oval;html=1;strokeColor=#FFFF66;strokeWidth=2;startFill=1;startSize=3;" parent="1" edge="1">
                    <mxGeometry width="50" height="50" relative="1" as="geometry">
                        <mxPoint x="921" y="976.7600000000002" as="sourcePoint"/>
                        <mxPoint x="969" y="976.7600000000002" as="targetPoint"/>
                    </mxGeometry>
                </mxCell>
                <mxCell id="210" value="&lt;span style=&quot;font-size: 18px&quot;&gt;数据链表表头&lt;/span&gt;" style="text;html=1;strokeColor=none;fillColor=none;align=center;verticalAlign=middle;whiteSpace=wrap;rounded=0;" parent="1" vertex="1">
                    <mxGeometry x="789" y="967" width="121" height="20" as="geometry"/>
                </mxCell>
                <mxCell id="212" value="" style="endArrow=none;html=1;strokeColor=#FFFF66;strokeWidth=2;" parent="1" edge="1">
                    <mxGeometry width="50" height="50" relative="1" as="geometry">
                        <mxPoint x="30" y="858" as="sourcePoint"/>
                        <mxPoint x="1117.6666666666667" y="850" as="targetPoint"/>
                    </mxGeometry>
                </mxCell>
                <mxCell id="213" value="&lt;font style=&quot;font-size: 22px&quot;&gt;添加元素&lt;/font&gt;" style="text;html=1;strokeColor=#A50040;fillColor=#d80073;align=center;verticalAlign=middle;whiteSpace=wrap;rounded=0;fontColor=#ffffff;" parent="1" vertex="1">
                    <mxGeometry x="36" y="871" width="195" height="20" as="geometry"/>
                </mxCell>
                <mxCell id="214" value="" style="endArrow=none;html=1;strokeColor=#FFFF66;strokeWidth=2;" parent="1" edge="1">
                    <mxGeometry width="50" height="50" relative="1" as="geometry">
                        <mxPoint x="31" y="445" as="sourcePoint"/>
                        <mxPoint x="1118.666666666667" y="436.9999999999998" as="targetPoint"/>
                    </mxGeometry>
                </mxCell>
                <mxCell id="215" value="&lt;font style=&quot;font-size: 22px&quot;&gt;空链表&lt;/font&gt;" style="text;html=1;strokeColor=#A50040;fillColor=#d80073;align=center;verticalAlign=middle;whiteSpace=wrap;rounded=0;fontColor=#ffffff;" parent="1" vertex="1">
                    <mxGeometry x="37" y="458" width="195" height="20" as="geometry"/>
                </mxCell>
                <mxCell id="216" value="Text" style="text;html=1;align=center;verticalAlign=middle;resizable=0;points=[];autosize=1;" parent="1" vertex="1">
                    <mxGeometry x="448" y="1074" width="32" height="18" as="geometry"/>
                </mxCell>
            </root>
        </mxGraphModel>
    </diagram>
    <diagram id="-g7XdM2CCRsZvGaQYKvu" name="第 2 页">
        <mxGraphModel dx="-747" dy="274" grid="0" gridSize="10" guides="1" tooltips="1" connect="1" arrows="1" fold="1" page="1" pageScale="1" pageWidth="1169" pageHeight="827" background="#808080" math="0" shadow="0">
            <root>
                <mxCell id="zntCc6mLw0x-vfsbO0hV-0"/>
                <mxCell id="zntCc6mLw0x-vfsbO0hV-1" parent="zntCc6mLw0x-vfsbO0hV-0"/>
                <mxCell id="zntCc6mLw0x-vfsbO0hV-2" value="" style="align=center;strokeColor=#FFFF66;html=1;fillColor=none;strokeWidth=2;" parent="zntCc6mLw0x-vfsbO0hV-1" vertex="1">
                    <mxGeometry x="1309" y="169" width="40" height="20" as="geometry"/>
                </mxCell>
                <mxCell id="zntCc6mLw0x-vfsbO0hV-3" value="0" style="align=center;strokeColor=none;html=1;fillColor=none;strokeWidth=2;" parent="zntCc6mLw0x-vfsbO0hV-1" vertex="1">
                    <mxGeometry x="1309" y="189" width="40" height="20" as="geometry"/>
                </mxCell>
                <mxCell id="zntCc6mLw0x-vfsbO0hV-8" value="A" style="align=center;strokeColor=#FFFF66;html=1;fillColor=none;strokeWidth=2;" parent="zntCc6mLw0x-vfsbO0hV-1" vertex="1">
                    <mxGeometry x="1349" y="169" width="40" height="20" as="geometry"/>
                </mxCell>
                <mxCell id="zntCc6mLw0x-vfsbO0hV-9" value="1" style="align=center;strokeColor=none;html=1;fillColor=none;strokeWidth=2;" parent="zntCc6mLw0x-vfsbO0hV-1" vertex="1">
                    <mxGeometry x="1349" y="189" width="40" height="20" as="geometry"/>
                </mxCell>
                <mxCell id="zntCc6mLw0x-vfsbO0hV-14" value="C" style="align=center;strokeColor=#FFFF66;html=1;fillColor=none;strokeWidth=2;" parent="zntCc6mLw0x-vfsbO0hV-1" vertex="1">
                    <mxGeometry x="1389" y="169" width="40" height="20" as="geometry"/>
                </mxCell>
                <mxCell id="zntCc6mLw0x-vfsbO0hV-15" value="2" style="align=center;strokeColor=none;html=1;fillColor=none;strokeWidth=2;" parent="zntCc6mLw0x-vfsbO0hV-1" vertex="1">
                    <mxGeometry x="1389" y="189" width="40" height="20" as="geometry"/>
                </mxCell>
                <mxCell id="zntCc6mLw0x-vfsbO0hV-16" value="D" style="align=center;strokeColor=#FFFF66;html=1;fillColor=none;strokeWidth=2;" parent="zntCc6mLw0x-vfsbO0hV-1" vertex="1">
                    <mxGeometry x="1429" y="169" width="40" height="20" as="geometry"/>
                </mxCell>
                <mxCell id="zntCc6mLw0x-vfsbO0hV-17" value="3" style="align=center;strokeColor=none;html=1;fillColor=none;strokeWidth=2;" parent="zntCc6mLw0x-vfsbO0hV-1" vertex="1">
                    <mxGeometry x="1429" y="189" width="40" height="20" as="geometry"/>
                </mxCell>
                <mxCell id="zntCc6mLw0x-vfsbO0hV-18" value="E" style="align=center;strokeColor=#FFFF66;html=1;fillColor=none;strokeWidth=2;" parent="zntCc6mLw0x-vfsbO0hV-1" vertex="1">
                    <mxGeometry x="1469" y="169" width="40" height="20" as="geometry"/>
                </mxCell>
                <mxCell id="zntCc6mLw0x-vfsbO0hV-19" value="4" style="align=center;strokeColor=none;html=1;fillColor=none;strokeWidth=2;" parent="zntCc6mLw0x-vfsbO0hV-1" vertex="1">
                    <mxGeometry x="1469" y="189" width="40" height="20" as="geometry"/>
                </mxCell>
                <mxCell id="zntCc6mLw0x-vfsbO0hV-20" value="B" style="align=center;strokeColor=#FFFF66;html=1;fillColor=none;strokeWidth=2;" parent="zntCc6mLw0x-vfsbO0hV-1" vertex="1">
                    <mxGeometry x="1509" y="169" width="40" height="20" as="geometry"/>
                </mxCell>
                <mxCell id="zntCc6mLw0x-vfsbO0hV-21" value="5" style="align=center;strokeColor=none;html=1;fillColor=none;strokeWidth=2;" parent="zntCc6mLw0x-vfsbO0hV-1" vertex="1">
                    <mxGeometry x="1509" y="189" width="40" height="20" as="geometry"/>
                </mxCell>
                <mxCell id="zntCc6mLw0x-vfsbO0hV-22" value="" style="align=center;strokeColor=#FFFF66;html=1;fillColor=none;strokeWidth=2;" parent="zntCc6mLw0x-vfsbO0hV-1" vertex="1">
                    <mxGeometry x="1549" y="169" width="40" height="20" as="geometry"/>
                </mxCell>
                <mxCell id="zntCc6mLw0x-vfsbO0hV-23" value="6" style="align=center;strokeColor=none;html=1;fillColor=none;strokeWidth=2;" parent="zntCc6mLw0x-vfsbO0hV-1" vertex="1">
                    <mxGeometry x="1549" y="189" width="40" height="20" as="geometry"/>
                </mxCell>
                <mxCell id="zntCc6mLw0x-vfsbO0hV-24" value="" style="align=center;strokeColor=#FFFF66;html=1;fillColor=none;strokeWidth=2;" parent="zntCc6mLw0x-vfsbO0hV-1" vertex="1">
                    <mxGeometry x="1589" y="169" width="40" height="20" as="geometry"/>
                </mxCell>
                <mxCell id="zntCc6mLw0x-vfsbO0hV-25" value="7" style="align=center;strokeColor=none;html=1;fillColor=none;strokeWidth=2;" parent="zntCc6mLw0x-vfsbO0hV-1" vertex="1">
                    <mxGeometry x="1589" y="189" width="40" height="20" as="geometry"/>
                </mxCell>
                <mxCell id="zntCc6mLw0x-vfsbO0hV-28" value="下标" style="text;html=1;strokeColor=none;fillColor=none;align=center;verticalAlign=middle;whiteSpace=wrap;rounded=0;" parent="zntCc6mLw0x-vfsbO0hV-1" vertex="1">
                    <mxGeometry x="1266" y="187" width="40" height="20" as="geometry"/>
                </mxCell>
                <mxCell id="zntCc6mLw0x-vfsbO0hV-29" value="数据" style="text;html=1;strokeColor=none;fillColor=none;align=center;verticalAlign=middle;whiteSpace=wrap;rounded=0;" parent="zntCc6mLw0x-vfsbO0hV-1" vertex="1">
                    <mxGeometry x="1266" y="167" width="40" height="20" as="geometry"/>
                </mxCell>
                <mxCell id="zntCc6mLw0x-vfsbO0hV-30" value="游标" style="text;html=1;strokeColor=none;fillColor=none;align=center;verticalAlign=middle;whiteSpace=wrap;rounded=0;" parent="zntCc6mLw0x-vfsbO0hV-1" vertex="1">
                    <mxGeometry x="1266" y="149" width="40" height="20" as="geometry"/>
                </mxCell>
                <mxCell id="zntCc6mLw0x-vfsbO0hV-31" value="B" style="align=center;strokeColor=#FFFF66;html=1;fillColor=none;strokeWidth=2;" parent="zntCc6mLw0x-vfsbO0hV-1" vertex="1">
                    <mxGeometry x="1509" y="169" width="40" height="20" as="geometry"/>
                </mxCell>
                <mxCell id="zntCc6mLw0x-vfsbO0hV-32" value="6" style="align=center;strokeColor=#FFFF66;html=1;fillColor=none;strokeWidth=2;" parent="zntCc6mLw0x-vfsbO0hV-1" vertex="1">
                    <mxGeometry x="1309" y="149" width="40" height="20" as="geometry"/>
                </mxCell>
                <mxCell id="zntCc6mLw0x-vfsbO0hV-34" value="5" style="align=center;strokeColor=#FFFF66;html=1;fillColor=none;strokeWidth=2;" parent="zntCc6mLw0x-vfsbO0hV-1" vertex="1">
                    <mxGeometry x="1349" y="149" width="40" height="20" as="geometry"/>
                </mxCell>
                <mxCell id="zntCc6mLw0x-vfsbO0hV-36" value="3" style="align=center;strokeColor=#FFFF66;html=1;fillColor=none;strokeWidth=2;" parent="zntCc6mLw0x-vfsbO0hV-1" vertex="1">
                    <mxGeometry x="1389" y="149" width="40" height="20" as="geometry"/>
                </mxCell>
                <mxCell id="zntCc6mLw0x-vfsbO0hV-38" value="4" style="align=center;strokeColor=#FFFF66;html=1;fillColor=none;strokeWidth=2;" parent="zntCc6mLw0x-vfsbO0hV-1" vertex="1">
                    <mxGeometry x="1429" y="149" width="40" height="20" as="geometry"/>
                </mxCell>
                <mxCell id="zntCc6mLw0x-vfsbO0hV-40" value="0" style="align=center;strokeColor=#FFFF66;html=1;fillColor=none;strokeWidth=2;" parent="zntCc6mLw0x-vfsbO0hV-1" vertex="1">
                    <mxGeometry x="1469" y="149" width="40" height="20" as="geometry"/>
                </mxCell>
                <mxCell id="zntCc6mLw0x-vfsbO0hV-42" value="2" style="align=center;strokeColor=#FFFF66;html=1;fillColor=none;strokeWidth=2;" parent="zntCc6mLw0x-vfsbO0hV-1" vertex="1">
                    <mxGeometry x="1509" y="149" width="40" height="20" as="geometry"/>
                </mxCell>
                <mxCell id="zntCc6mLw0x-vfsbO0hV-44" value="7" style="align=center;strokeColor=#FFFF66;html=1;fillColor=none;strokeWidth=2;" parent="zntCc6mLw0x-vfsbO0hV-1" vertex="1">
                    <mxGeometry x="1549" y="149" width="40" height="20" as="geometry"/>
                </mxCell>
                <mxCell id="zntCc6mLw0x-vfsbO0hV-46" value="8" style="align=center;strokeColor=#FFFF66;html=1;fillColor=none;strokeWidth=2;" parent="zntCc6mLw0x-vfsbO0hV-1" vertex="1">
                    <mxGeometry x="1589" y="149" width="40" height="20" as="geometry"/>
                </mxCell>
                <mxCell id="zntCc6mLw0x-vfsbO0hV-54" value="" style="align=center;strokeColor=#FFFF66;html=1;fillColor=none;strokeWidth=2;" parent="zntCc6mLw0x-vfsbO0hV-1" vertex="1">
                    <mxGeometry x="1629" y="169" width="40" height="20" as="geometry"/>
                </mxCell>
                <mxCell id="zntCc6mLw0x-vfsbO0hV-55" value="8" style="align=center;strokeColor=none;html=1;fillColor=none;strokeWidth=2;" parent="zntCc6mLw0x-vfsbO0hV-1" vertex="1">
                    <mxGeometry x="1629" y="189" width="40" height="20" as="geometry"/>
                </mxCell>
                <mxCell id="zntCc6mLw0x-vfsbO0hV-56" value="0" style="align=center;strokeColor=#FFFF66;html=1;fillColor=none;strokeWidth=2;" parent="zntCc6mLw0x-vfsbO0hV-1" vertex="1">
                    <mxGeometry x="1629" y="149" width="40" height="20" as="geometry"/>
                </mxCell>
                <mxCell id="zntCc6mLw0x-vfsbO0hV-57" value="-" style="align=center;strokeColor=#FFFF66;html=1;fillColor=none;strokeWidth=2;" parent="zntCc6mLw0x-vfsbO0hV-1" vertex="1">
                    <mxGeometry x="1669" y="169" width="40" height="20" as="geometry"/>
                </mxCell>
                <mxCell id="zntCc6mLw0x-vfsbO0hV-58" value="9" style="align=center;strokeColor=none;html=1;fillColor=none;strokeWidth=2;" parent="zntCc6mLw0x-vfsbO0hV-1" vertex="1">
                    <mxGeometry x="1669" y="189" width="40" height="20" as="geometry"/>
                </mxCell>
                <mxCell id="zntCc6mLw0x-vfsbO0hV-59" value="1" style="align=center;strokeColor=#FFFF66;html=1;fillColor=none;strokeWidth=2;" parent="zntCc6mLw0x-vfsbO0hV-1" vertex="1">
                    <mxGeometry x="1669" y="149" width="40" height="20" as="geometry"/>
                </mxCell>
                <mxCell id="zntCc6mLw0x-vfsbO0hV-60" value="链表结尾" style="text;html=1;strokeColor=none;fillColor=none;align=center;verticalAlign=middle;whiteSpace=wrap;rounded=0;" parent="zntCc6mLw0x-vfsbO0hV-1" vertex="1">
                    <mxGeometry x="1460.5" y="96" width="57" height="20" as="geometry"/>
                </mxCell>
                <mxCell id="zntCc6mLw0x-vfsbO0hV-61" value="" style="endArrow=open;html=1;strokeColor=#FFFF66;endFill=0;startArrow=oval;startFill=1;strokeWidth=2;startSize=2;entryX=0.5;entryY=0;entryDx=0;entryDy=0;" parent="zntCc6mLw0x-vfsbO0hV-1" target="zntCc6mLw0x-vfsbO0hV-40" edge="1">
                    <mxGeometry width="50" height="50" relative="1" as="geometry">
                        <mxPoint x="1490" y="118" as="sourcePoint"/>
                        <mxPoint x="1509" y="95" as="targetPoint"/>
                    </mxGeometry>
                </mxCell>
                <mxCell id="zntCc6mLw0x-vfsbO0hV-62" value="" style="endArrow=open;html=1;strokeColor=#FFFF66;endFill=0;startArrow=oval;startFill=1;strokeWidth=2;startSize=2;entryX=0.5;entryY=0;entryDx=0;entryDy=0;" parent="zntCc6mLw0x-vfsbO0hV-1" edge="1">
                    <mxGeometry width="50" height="50" relative="1" as="geometry">
                        <mxPoint x="1489.5" y="118" as="sourcePoint"/>
                        <mxPoint x="1488.5" y="149" as="targetPoint"/>
                    </mxGeometry>
                </mxCell>
                <mxCell id="zntCc6mLw0x-vfsbO0hV-63" value="数组结尾" style="text;html=1;strokeColor=none;fillColor=none;align=center;verticalAlign=middle;whiteSpace=wrap;rounded=0;" parent="zntCc6mLw0x-vfsbO0hV-1" vertex="1">
                    <mxGeometry x="1603" y="96" width="57" height="20" as="geometry"/>
                </mxCell>
                <mxCell id="zntCc6mLw0x-vfsbO0hV-64" value="" style="endArrow=open;html=1;strokeColor=#FFFF66;endFill=0;startArrow=oval;startFill=1;strokeWidth=2;startSize=2;entryX=0.5;entryY=0;entryDx=0;entryDy=0;" parent="zntCc6mLw0x-vfsbO0hV-1" edge="1">
                    <mxGeometry width="50" height="50" relative="1" as="geometry">
                        <mxPoint x="1649.5" y="118" as="sourcePoint"/>
                        <mxPoint x="1648.5" y="149" as="targetPoint"/>
                    </mxGeometry>
                </mxCell>
                <mxCell id="zntCc6mLw0x-vfsbO0hV-65" value="数据链链表表头" style="text;html=1;strokeColor=none;fillColor=none;align=center;verticalAlign=middle;whiteSpace=wrap;rounded=0;" parent="zntCc6mLw0x-vfsbO0hV-1" vertex="1">
                    <mxGeometry x="1349" y="94" width="93" height="20" as="geometry"/>
                </mxCell>
                <mxCell id="zntCc6mLw0x-vfsbO0hV-66" value="" style="endArrow=open;html=1;strokeColor=#FFFF66;endFill=0;startArrow=oval;startFill=1;strokeWidth=2;startSize=2;entryX=0.5;entryY=0;entryDx=0;entryDy=0;" parent="zntCc6mLw0x-vfsbO0hV-1" edge="1">
                    <mxGeometry width="50" height="50" relative="1" as="geometry">
                        <mxPoint x="1369.5" y="116" as="sourcePoint"/>
                        <mxPoint x="1368.5" y="147" as="targetPoint"/>
                    </mxGeometry>
                </mxCell>
                <mxCell id="zntCc6mLw0x-vfsbO0hV-67" value="数组起始" style="text;html=1;strokeColor=none;fillColor=none;align=center;verticalAlign=middle;whiteSpace=wrap;rounded=0;" parent="zntCc6mLw0x-vfsbO0hV-1" vertex="1">
                    <mxGeometry x="1273" y="92" width="57" height="20" as="geometry"/>
                </mxCell>
                <mxCell id="zntCc6mLw0x-vfsbO0hV-68" value="" style="endArrow=open;html=1;strokeColor=#FFFF66;endFill=0;startArrow=oval;startFill=1;strokeWidth=2;startSize=2;entryX=0.5;entryY=0;entryDx=0;entryDy=0;" parent="zntCc6mLw0x-vfsbO0hV-1" edge="1">
                    <mxGeometry width="50" height="50" relative="1" as="geometry">
                        <mxPoint x="1319" y="116" as="sourcePoint"/>
                        <mxPoint x="1318" y="147" as="targetPoint"/>
                    </mxGeometry>
                </mxCell>
                <mxCell id="zntCc6mLw0x-vfsbO0hV-70" value="链表头节点" style="text;html=1;strokeColor=none;fillColor=none;align=center;verticalAlign=middle;whiteSpace=wrap;rounded=0;" parent="zntCc6mLw0x-vfsbO0hV-1" vertex="1">
                    <mxGeometry x="1673" y="96" width="73" height="20" as="geometry"/>
                </mxCell>
                <mxCell id="zntCc6mLw0x-vfsbO0hV-71" value="" style="endArrow=open;html=1;strokeColor=#FFFF66;endFill=0;startArrow=oval;startFill=1;strokeWidth=2;startSize=2;entryX=0.5;entryY=0;entryDx=0;entryDy=0;" parent="zntCc6mLw0x-vfsbO0hV-1" edge="1">
                    <mxGeometry width="50" height="50" relative="1" as="geometry">
                        <mxPoint x="1692" y="118" as="sourcePoint"/>
                        <mxPoint x="1691" y="149" as="targetPoint"/>
                    </mxGeometry>
                </mxCell>
                <mxCell id="zntCc6mLw0x-vfsbO0hV-75" value="" style="endArrow=open;html=1;strokeColor=#FFFF66;strokeWidth=2;endFill=0;" parent="zntCc6mLw0x-vfsbO0hV-1" edge="1">
                    <mxGeometry width="50" height="50" relative="1" as="geometry">
                        <mxPoint x="1341" y="226" as="sourcePoint"/>
                        <mxPoint x="1619" y="226" as="targetPoint"/>
                    </mxGeometry>
                </mxCell>
                <mxCell id="zntCc6mLw0x-vfsbO0hV-76" value="内存地址由小变大" style="text;html=1;strokeColor=none;fillColor=none;align=center;verticalAlign=middle;whiteSpace=wrap;rounded=0;" parent="zntCc6mLw0x-vfsbO0hV-1" vertex="1">
                    <mxGeometry x="1428" y="227" width="121" height="20" as="geometry"/>
                </mxCell>
                <mxCell id="zntCc6mLw0x-vfsbO0hV-77" value="" style="align=center;strokeColor=#FFFF66;html=1;fillColor=none;strokeWidth=2;" parent="zntCc6mLw0x-vfsbO0hV-1" vertex="1">
                    <mxGeometry x="1309" y="365" width="40" height="20" as="geometry"/>
                </mxCell>
                <mxCell id="zntCc6mLw0x-vfsbO0hV-78" value="0" style="align=center;strokeColor=none;html=1;fillColor=none;strokeWidth=2;" parent="zntCc6mLw0x-vfsbO0hV-1" vertex="1">
                    <mxGeometry x="1309" y="385" width="40" height="20" as="geometry"/>
                </mxCell>
                <mxCell id="zntCc6mLw0x-vfsbO0hV-79" value="" style="align=center;strokeColor=#FFFF66;html=1;fillColor=none;strokeWidth=2;" parent="zntCc6mLw0x-vfsbO0hV-1" vertex="1">
                    <mxGeometry x="1349" y="365" width="40" height="20" as="geometry"/>
                </mxCell>
                <mxCell id="zntCc6mLw0x-vfsbO0hV-80" value="1" style="align=center;strokeColor=none;html=1;fillColor=none;strokeWidth=2;" parent="zntCc6mLw0x-vfsbO0hV-1" vertex="1">
                    <mxGeometry x="1349" y="385" width="40" height="20" as="geometry"/>
                </mxCell>
                <mxCell id="zntCc6mLw0x-vfsbO0hV-82" value="2" style="align=center;strokeColor=none;html=1;fillColor=none;strokeWidth=2;" parent="zntCc6mLw0x-vfsbO0hV-1" vertex="1">
                    <mxGeometry x="1389" y="385" width="40" height="20" as="geometry"/>
                </mxCell>
                <mxCell id="zntCc6mLw0x-vfsbO0hV-84" value="3" style="align=center;strokeColor=none;html=1;fillColor=none;strokeWidth=2;" parent="zntCc6mLw0x-vfsbO0hV-1" vertex="1">
                    <mxGeometry x="1429" y="385" width="40" height="20" as="geometry"/>
                </mxCell>
                <mxCell id="zntCc6mLw0x-vfsbO0hV-86" value="4" style="align=center;strokeColor=none;html=1;fillColor=none;strokeWidth=2;" parent="zntCc6mLw0x-vfsbO0hV-1" vertex="1">
                    <mxGeometry x="1469" y="385" width="40" height="20" as="geometry"/>
                </mxCell>
                <mxCell id="zntCc6mLw0x-vfsbO0hV-88" value="5" style="align=center;strokeColor=none;html=1;fillColor=none;strokeWidth=2;" parent="zntCc6mLw0x-vfsbO0hV-1" vertex="1">
                    <mxGeometry x="1509" y="385" width="40" height="20" as="geometry"/>
                </mxCell>
                <mxCell id="zntCc6mLw0x-vfsbO0hV-89" value="" style="align=center;strokeColor=#FFFF66;html=1;fillColor=none;strokeWidth=2;" parent="zntCc6mLw0x-vfsbO0hV-1" vertex="1">
                    <mxGeometry x="1549" y="365" width="40" height="20" as="geometry"/>
                </mxCell>
                <mxCell id="zntCc6mLw0x-vfsbO0hV-90" value="6" style="align=center;strokeColor=none;html=1;fillColor=none;strokeWidth=2;" parent="zntCc6mLw0x-vfsbO0hV-1" vertex="1">
                    <mxGeometry x="1549" y="385" width="40" height="20" as="geometry"/>
                </mxCell>
                <mxCell id="zntCc6mLw0x-vfsbO0hV-91" value="" style="align=center;strokeColor=#FFFF66;html=1;fillColor=none;strokeWidth=2;" parent="zntCc6mLw0x-vfsbO0hV-1" vertex="1">
                    <mxGeometry x="1589" y="365" width="40" height="20" as="geometry"/>
                </mxCell>
                <mxCell id="zntCc6mLw0x-vfsbO0hV-92" value="7" style="align=center;strokeColor=none;html=1;fillColor=none;strokeWidth=2;" parent="zntCc6mLw0x-vfsbO0hV-1" vertex="1">
                    <mxGeometry x="1589" y="385" width="40" height="20" as="geometry"/>
                </mxCell>
                <mxCell id="zntCc6mLw0x-vfsbO0hV-93" value="下标" style="text;html=1;strokeColor=none;fillColor=none;align=center;verticalAlign=middle;whiteSpace=wrap;rounded=0;" parent="zntCc6mLw0x-vfsbO0hV-1" vertex="1">
                    <mxGeometry x="1266" y="383" width="40" height="20" as="geometry"/>
                </mxCell>
                <mxCell id="zntCc6mLw0x-vfsbO0hV-94" value="数据" style="text;html=1;strokeColor=none;fillColor=none;align=center;verticalAlign=middle;whiteSpace=wrap;rounded=0;" parent="zntCc6mLw0x-vfsbO0hV-1" vertex="1">
                    <mxGeometry x="1266" y="363" width="40" height="20" as="geometry"/>
                </mxCell>
                <mxCell id="zntCc6mLw0x-vfsbO0hV-95" value="游标" style="text;html=1;strokeColor=none;fillColor=none;align=center;verticalAlign=middle;whiteSpace=wrap;rounded=0;" parent="zntCc6mLw0x-vfsbO0hV-1" vertex="1">
                    <mxGeometry x="1266" y="345" width="40" height="20" as="geometry"/>
                </mxCell>
                <mxCell id="zntCc6mLw0x-vfsbO0hV-97" value="1" style="align=center;strokeColor=#FFFF66;html=1;fillColor=none;strokeWidth=2;" parent="zntCc6mLw0x-vfsbO0hV-1" vertex="1">
                    <mxGeometry x="1309" y="345" width="40" height="20" as="geometry"/>
                </mxCell>
                <mxCell id="zntCc6mLw0x-vfsbO0hV-98" value="2" style="align=center;strokeColor=#FFFF66;html=1;fillColor=none;strokeWidth=2;" parent="zntCc6mLw0x-vfsbO0hV-1" vertex="1">
                    <mxGeometry x="1349" y="345" width="40" height="20" as="geometry"/>
                </mxCell>
                <mxCell id="zntCc6mLw0x-vfsbO0hV-99" value="3" style="align=center;strokeColor=#FFFF66;html=1;fillColor=none;strokeWidth=2;" parent="zntCc6mLw0x-vfsbO0hV-1" vertex="1">
                    <mxGeometry x="1389" y="345" width="40" height="20" as="geometry"/>
                </mxCell>
                <mxCell id="zntCc6mLw0x-vfsbO0hV-100" value="4" style="align=center;strokeColor=#FFFF66;html=1;fillColor=none;strokeWidth=2;" parent="zntCc6mLw0x-vfsbO0hV-1" vertex="1">
                    <mxGeometry x="1429" y="345" width="40" height="20" as="geometry"/>
                </mxCell>
                <mxCell id="zntCc6mLw0x-vfsbO0hV-101" value="5" style="align=center;strokeColor=#FFFF66;html=1;fillColor=none;strokeWidth=2;" parent="zntCc6mLw0x-vfsbO0hV-1" vertex="1">
                    <mxGeometry x="1469" y="345" width="40" height="20" as="geometry"/>
                </mxCell>
                <mxCell id="zntCc6mLw0x-vfsbO0hV-102" value="6" style="align=center;strokeColor=#FFFF66;html=1;fillColor=none;strokeWidth=2;" parent="zntCc6mLw0x-vfsbO0hV-1" vertex="1">
                    <mxGeometry x="1509" y="345" width="40" height="20" as="geometry"/>
                </mxCell>
                <mxCell id="zntCc6mLw0x-vfsbO0hV-103" value="7" style="align=center;strokeColor=#FFFF66;html=1;fillColor=none;strokeWidth=2;" parent="zntCc6mLw0x-vfsbO0hV-1" vertex="1">
                    <mxGeometry x="1549" y="345" width="40" height="20" as="geometry"/>
                </mxCell>
                <mxCell id="zntCc6mLw0x-vfsbO0hV-104" value="8" style="align=center;strokeColor=#FFFF66;html=1;fillColor=none;strokeWidth=2;" parent="zntCc6mLw0x-vfsbO0hV-1" vertex="1">
                    <mxGeometry x="1589" y="345" width="40" height="20" as="geometry"/>
                </mxCell>
                <mxCell id="zntCc6mLw0x-vfsbO0hV-105" value="" style="align=center;strokeColor=#FFFF66;html=1;fillColor=none;strokeWidth=2;" parent="zntCc6mLw0x-vfsbO0hV-1" vertex="1">
                    <mxGeometry x="1629" y="365" width="40" height="20" as="geometry"/>
                </mxCell>
                <mxCell id="zntCc6mLw0x-vfsbO0hV-106" value="8" style="align=center;strokeColor=none;html=1;fillColor=none;strokeWidth=2;" parent="zntCc6mLw0x-vfsbO0hV-1" vertex="1">
                    <mxGeometry x="1629" y="385" width="40" height="20" as="geometry"/>
                </mxCell>
                <mxCell id="zntCc6mLw0x-vfsbO0hV-107" value="0" style="align=center;strokeColor=#FFFF66;html=1;fillColor=none;strokeWidth=2;" parent="zntCc6mLw0x-vfsbO0hV-1" vertex="1">
                    <mxGeometry x="1629" y="345" width="40" height="20" as="geometry"/>
                </mxCell>
                <mxCell id="zntCc6mLw0x-vfsbO0hV-108" value="-" style="align=center;strokeColor=#FFFF66;html=1;fillColor=none;strokeWidth=2;" parent="zntCc6mLw0x-vfsbO0hV-1" vertex="1">
                    <mxGeometry x="1669" y="365" width="40" height="20" as="geometry"/>
                </mxCell>
                <mxCell id="zntCc6mLw0x-vfsbO0hV-109" value="9" style="align=center;strokeColor=none;html=1;fillColor=none;strokeWidth=2;" parent="zntCc6mLw0x-vfsbO0hV-1" vertex="1">
                    <mxGeometry x="1669" y="385" width="40" height="20" as="geometry"/>
                </mxCell>
                <mxCell id="zntCc6mLw0x-vfsbO0hV-110" value="1" style="align=center;strokeColor=#FFFF66;html=1;fillColor=none;strokeWidth=2;" parent="zntCc6mLw0x-vfsbO0hV-1" vertex="1">
                    <mxGeometry x="1669" y="345" width="40" height="20" as="geometry"/>
                </mxCell>
                <mxCell id="zntCc6mLw0x-vfsbO0hV-124" value="" style="align=center;strokeColor=#FFFF66;html=1;fillColor=none;strokeWidth=2;" parent="zntCc6mLw0x-vfsbO0hV-1" vertex="1">
                    <mxGeometry x="1389" y="365" width="40" height="20" as="geometry"/>
                </mxCell>
                <mxCell id="zntCc6mLw0x-vfsbO0hV-125" value="" style="align=center;strokeColor=#FFFF66;html=1;fillColor=none;strokeWidth=2;" parent="zntCc6mLw0x-vfsbO0hV-1" vertex="1">
                    <mxGeometry x="1429" y="365" width="40" height="20" as="geometry"/>
                </mxCell>
                <mxCell id="zntCc6mLw0x-vfsbO0hV-126" value="" style="align=center;strokeColor=#FFFF66;html=1;fillColor=none;strokeWidth=2;" parent="zntCc6mLw0x-vfsbO0hV-1" vertex="1">
                    <mxGeometry x="1469" y="365" width="40" height="20" as="geometry"/>
                </mxCell>
                <mxCell id="zntCc6mLw0x-vfsbO0hV-127" value="" style="align=center;strokeColor=#FFFF66;html=1;fillColor=none;strokeWidth=2;" parent="zntCc6mLw0x-vfsbO0hV-1" vertex="1">
                    <mxGeometry x="1509" y="365" width="40" height="20" as="geometry"/>
                </mxCell>
                <mxCell id="zntCc6mLw0x-vfsbO0hV-128" value="备用链表表头" style="text;html=1;strokeColor=none;fillColor=none;align=center;verticalAlign=middle;whiteSpace=wrap;rounded=0;" parent="zntCc6mLw0x-vfsbO0hV-1" vertex="1">
                    <mxGeometry x="1252" y="292" width="121" height="20" as="geometry"/>
                </mxCell>
                <mxCell id="zntCc6mLw0x-vfsbO0hV-130" value="" style="endArrow=open;html=1;strokeColor=#FFFF66;endFill=0;startArrow=oval;startFill=1;strokeWidth=2;startSize=2;entryX=0.5;entryY=0;entryDx=0;entryDy=0;" parent="zntCc6mLw0x-vfsbO0hV-1" edge="1">
                    <mxGeometry width="50" height="50" relative="1" as="geometry">
                        <mxPoint x="1330" y="314" as="sourcePoint"/>
                        <mxPoint x="1329" y="345" as="targetPoint"/>
                    </mxGeometry>
                </mxCell>
                <mxCell id="zntCc6mLw0x-vfsbO0hV-131" value="备用链表表头" style="text;html=1;strokeColor=none;fillColor=none;align=center;verticalAlign=middle;whiteSpace=wrap;rounded=0;" parent="zntCc6mLw0x-vfsbO0hV-1" vertex="1">
                    <mxGeometry x="1230" y="74" width="121" height="20" as="geometry"/>
                </mxCell>
                <mxCell id="xmDG-hwt21j6cK7Pl8-p-0" value="下个元素的下标" style="text;html=1;strokeColor=none;fillColor=none;align=center;verticalAlign=middle;whiteSpace=wrap;rounded=0;" vertex="1" parent="zntCc6mLw0x-vfsbO0hV-1">
                    <mxGeometry x="1186" y="122" width="96" height="20" as="geometry"/>
                </mxCell>
                <mxCell id="xmDG-hwt21j6cK7Pl8-p-1" value="" style="curved=1;endArrow=classic;html=1;entryX=0;entryY=0.5;entryDx=0;entryDy=0;strokeColor=#FFFF66;" edge="1" parent="zntCc6mLw0x-vfsbO0hV-1" target="zntCc6mLw0x-vfsbO0hV-30">
                    <mxGeometry width="50" height="50" relative="1" as="geometry">
                        <mxPoint x="1214" y="146" as="sourcePoint"/>
                        <mxPoint x="1207" y="218" as="targetPoint"/>
                        <Array as="points">
                            <mxPoint x="1229" y="159"/>
                        </Array>
                    </mxGeometry>
                </mxCell>
            </root>
        </mxGraphModel>
    </diagram>
</mxfile>